<?xml version="1.0" encoding="UTF-8" standalone="no"?>
<!-- Created with Inkscape (http://www.inkscape.org/) -->

<svg
   version="1.1"
   id="svg1"
   width="612"
   height="612"
   viewBox="0 -36 612.00002 611.99998"
   xmlns="http://www.w3.org/2000/svg"
   xmlns:svg="http://www.w3.org/2000/svg">
  <defs
     id="defs1">
    <linearGradient
       x1="0"
       y1="0"
       x2="1"
       y2="0"
       gradientUnits="userSpaceOnUse"
       gradientTransform="matrix(-5417.58,-5806.34,-5806.34,5417.58,5300.47,6926.86)"
       spreadMethod="pad"
       id="linearGradient3">
      <stop
         style="stop-opacity:1;stop-color:#f09c13"
         offset="0"
         id="stop2" />
      <stop
         style="stop-opacity:1;stop-color:#f04328"
         offset="1"
         id="stop3" />
    </linearGradient>
    <clipPath
       clipPathUnits="userSpaceOnUse"
       id="clipPath3">
      <path
         d="m 3106.75,4361.84 c 42.62,-16.59 78.62,-20.97 99.59,0 18.97,18.97 -18.65,177.87 -86.41,273.99 -81.13,115.09 -49.07,204.76 25.05,199.64 v 0 c 0,0 -112.11,15.71 -143.93,-60.53 -24.17,-57.94 71.45,-255.18 118.78,-346.62 -4.72,-22.03 -9.05,-44.2 -13.08,-66.48 z"
         transform="translate(0,2.5000001e-4)"
         id="path3" />
    </clipPath>
    <linearGradient
       x1="0"
       y1="0"
       x2="1"
       y2="0"
       gradientUnits="userSpaceOnUse"
       gradientTransform="matrix(-5417.58,-5806.34,-5806.34,5417.58,6346.02,5951.32)"
       spreadMethod="pad"
       id="linearGradient5">
      <stop
         style="stop-opacity:1;stop-color:#f09c13"
         offset="0"
         id="stop4" />
      <stop
         style="stop-opacity:1;stop-color:#f04328"
         offset="1"
         id="stop5" />
    </linearGradient>
    <clipPath
       clipPathUnits="userSpaceOnUse"
       id="clipPath5">
      <path
         d="m 7291.6,4677.79 c -11.14,75.19 -219.03,159.41 -356.67,207.31 -328.96,678.52 -1024.32,1146.39 -1828.99,1146.39 -854.49,0 -1585.58,-527.65 -1885.68,-1274.83 7.38,-36.8 9.54,-80.55 21.91,-116.61 50.58,-147.53 6.32,-316.15 271.88,-290.85 265.56,25.29 1144.45,569.06 1315.17,429.95 170.71,-139.1 -379.38,-777.71 -379.38,-777.71 0,0 493.19,246.59 657.58,360.4 125.15,86.64 363.83,132.99 554.37,194.81 -0.43,1.85 -0.92,3.72 -1.32,5.56 -43.83,197.63 -181.57,411 -127.43,487.06 54.14,76.05 116.13,36.13 176.48,213.95 60.34,177.82 -46.09,365.02 78.36,370 124.44,4.98 89.96,-96.63 24.09,-248.97 -65.86,-152.34 -46.59,-248.58 52.61,-206.71 99.19,41.88 428.32,246.52 458.7,113.45 30.39,-133.07 -340,-125.4 -422.42,-201.3 -82.42,-75.9 279.12,-151.39 270.19,-233.34 -8.92,-81.96 -85.59,-140.93 -172.68,-35.83 -87.09,105.1 -207.97,235.83 -281.92,157.06 -52.71,-56.15 38.99,-238.03 115.4,-351.31 188.25,96.41 426.34,108.62 426.34,108.62 1.47,2.95 2.97,5.83 4.49,8.65 58.67,108.52 198.1,143.76 303.44,79.55 236.17,-143.97 125.68,-308.19 116.37,-321.22 158.97,203.1 -139.77,391.1 -139.77,391.1 37.94,56.9 88.52,107.49 189.69,88.52 101.16,-18.97 139.1,-183.37 139.1,-183.37 0,0 214.98,-50.58 316.15,-101.16 101.16,-50.59 31.61,-120.14 0,-164.4 0,0 120.66,32.37 103.94,145.23 z"
         transform="translate(0,2.5000001e-4)"
         id="path5" />
    </clipPath>
    <radialGradient
       fx="0"
       fy="0"
       cx="0"
       cy="0"
       r="1"
       gradientUnits="userSpaceOnUse"
       gradientTransform="matrix(-5417.58,-5806.34,-5806.34,5417.58,6380.31,5919.32)"
       spreadMethod="pad"
       id="radialGradient7">
      <stop
         style="stop-opacity:1;stop-color:#7fcb2d"
         offset="0"
         id="stop6" />
      <stop
         style="stop-opacity:1;stop-color:#4a8433"
         offset="1"
         id="stop7" />
    </radialGradient>
    <clipPath
       clipPathUnits="userSpaceOnUse"
       id="clipPath7">
      <path
         d="m 6903.13,4431.39 c -120.14,-63.22 -714.49,-170.71 -714.49,-170.71 0,0 385.7,31.61 537.45,75.87 151.74,44.26 360.4,107.49 360.4,107.49 -490.53,-305.63 -771.39,-373.05 -771.39,-373.05 -177.05,-177.04 -607,-240.27 -638.62,-297.18 -5.11,-9.2 -10.55,-27.04 -15.66,-50.58 -26.46,-122.02 -43.85,-398.16 40.96,-429.96 101.16,-37.94 151.75,132.78 183.36,265.56 31.61,132.78 126.46,113.82 170.72,44.26 44.26,-69.55 -246.59,-297.17 -139.11,-328.79 107.49,-31.61 436.28,139.11 467.9,6.33 31.61,-132.78 -354.08,-94.85 -461.57,-101.17 -107.49,-6.32 -82.2,-101.17 44.26,-208.66 126.46,-107.48 202.33,-183.36 88.52,-233.94 -113.82,-50.59 -101.17,164.39 -233.95,297.17 -132.78,132.78 -170.72,69.56 -252.92,113.82 -82.19,44.26 -53.05,296.55 -101.16,493.18 -6.54,26.72 -11.85,55.13 -14.43,82.2 -5.01,52.57 0.31,100.06 27.07,120.13 30.43,22.82 163.95,87.67 286.16,145.13 -82.04,-31.81 -161.77,-59.25 -231.36,-90.33 -169.9,-75.87 -130.67,-149.64 -130.67,-149.64 -392.02,-50.58 -803.01,0 -803.01,0 0,0 1150.77,-663.9 897.85,-866.24 -252.91,-202.33 -1180.22,233.95 -1180.22,233.95 0,0 377.21,-208.66 503.67,-265.56 126.46,-56.91 330.9,-128.57 514.27,-96.95 183.36,31.61 311.93,23.18 299.28,-65.34 -12.65,-88.52 -497.4,10.54 -446.82,-59.01 50.58,-69.55 271.89,-56.91 423.64,-75.88 151.75,-18.97 217.08,-128.56 115.91,-172.82 -101.16,-44.26 -387.8,115.92 -476.32,96.95 -88.52,-18.97 35.03,-173.33 130.67,-276.1 141.22,-151.75 2.61,-321.88 -105.38,-109.6 -63.43,124.7 -44.26,202.33 -177.04,335.12 -132.78,132.78 -1207.67,809.33 -1004.79,910.49 168.72,84.13 445.61,-24.13 534.08,-62.98 18.73,-8.23 38.94,-12.2 59.4,-12.32 282.63,-1.68 588.35,-183.94 588.35,-183.94 -145.43,164.4 -556.41,233.95 -556.41,233.95 0,0 -259.24,202.33 -448.93,290.85 -189.69,88.52 -120.13,270 -120.13,270 -12.65,276.32 309.82,545.66 309.82,545.66 -158.07,-126.46 -1036.96,-202.33 -1144.45,-208.66 -107.49,-6.32 -60.37,-347.23 -67.44,-432.06 -8.43,-101.17 -187.58,-166.51 -124.35,185.47 22.47,125.09 52.69,257.13 52.69,257.13 -334.51,82.29 -470.04,191.88 -433.83,259.24 -0.02,-0.02 -86.17,-77.98 0,-157.4 52.7,-48.57 215.36,-131.48 333.84,-188.61 -2.88,-44.26 -4.5,-88.87 -4.5,-133.86 0,-1121.96 909.53,-2031.49 2031.49,-2031.49 1121.96,0 2031.49,909.53 2031.49,2031.49 0,168.61 -20.92,332.27 -59.67,488.9 -52.01,-11.82 -114.88,-26.05 -174.63,-57.51 z"
         transform="translate(0,2.5000001e-4)"
         id="path7" />
    </clipPath>
    <linearGradient
       x1="0"
       y1="0"
       x2="1"
       y2="0"
       gradientUnits="userSpaceOnUse"
       gradientTransform="matrix(-5417.58,-5806.34,-5806.34,5417.58,7069.11,5276.64)"
       spreadMethod="pad"
       id="linearGradient9">
      <stop
         style="stop-opacity:1;stop-color:#f09c13"
         offset="0"
         id="stop8" />
      <stop
         style="stop-opacity:1;stop-color:#f04328"
         offset="1"
         id="stop9" />
    </linearGradient>
    <clipPath
       clipPathUnits="userSpaceOnUse"
       id="clipPath9">
      <path
         d="m 6473.17,4774.94 c 0,0 52.69,-126.46 0,-263.46 0,0 -46.37,107.49 0,263.46 z m 158.07,-137 c 0,87.3 -70.77,158.08 -158.07,158.08 -87.3,0 -158.07,-70.78 -158.07,-158.08 0,-87.3 70.77,-158.07 158.07,-158.07 87.3,0 158.07,70.77 158.07,158.07 z"
         transform="translate(0,2.5000001e-4)"
         id="path9" />
    </clipPath>
  </defs>
  <g
     id="g1"
     transform="translate(-360.9077,-262.46806)">
    <g
       id="group-R5">
      <path
         id="path2"
         d="m 3106.75,4361.84 c 42.62,-16.59 78.62,-20.97 99.59,0 18.97,18.97 -18.65,177.87 -86.41,273.99 -81.13,115.09 -49.07,204.76 25.05,199.64 v 0 c 0,0 -112.11,15.71 -143.93,-60.53 -24.17,-57.94 71.45,-255.18 118.78,-346.62 -4.72,-22.03 -9.05,-44.2 -13.08,-66.48"
         style="fill:url(#linearGradient3);fill-opacity:1;fill-rule:nonzero;stroke:none"
         transform="matrix(0.13333333,0,0,-0.13333333,0,1066.6667)"
         clip-path="url(#clipPath3)" />
      <path
         id="path4"
         d="m 7291.6,4677.79 c -11.14,75.19 -219.03,159.41 -356.67,207.31 -328.96,678.52 -1024.32,1146.39 -1828.99,1146.39 -854.49,0 -1585.58,-527.65 -1885.68,-1274.83 7.38,-36.8 9.54,-80.55 21.91,-116.61 50.58,-147.53 6.32,-316.15 271.88,-290.85 265.56,25.29 1144.45,569.06 1315.17,429.95 170.71,-139.1 -379.38,-777.71 -379.38,-777.71 0,0 493.19,246.59 657.58,360.4 125.15,86.64 363.83,132.99 554.37,194.81 -0.43,1.85 -0.92,3.72 -1.32,5.56 -43.83,197.63 -181.57,411 -127.43,487.06 54.14,76.05 116.13,36.13 176.48,213.95 60.34,177.82 -46.09,365.02 78.36,370 124.44,4.98 89.96,-96.63 24.09,-248.97 -65.86,-152.34 -46.59,-248.58 52.61,-206.71 99.19,41.88 428.32,246.52 458.7,113.45 30.39,-133.07 -340,-125.4 -422.42,-201.3 -82.42,-75.9 279.12,-151.39 270.19,-233.34 -8.92,-81.96 -85.59,-140.93 -172.68,-35.83 -87.09,105.1 -207.97,235.83 -281.92,157.06 -52.71,-56.15 38.99,-238.03 115.4,-351.31 188.25,96.41 426.34,108.62 426.34,108.62 1.47,2.95 2.97,5.83 4.49,8.65 58.67,108.52 198.1,143.76 303.44,79.55 236.17,-143.97 125.68,-308.19 116.37,-321.22 158.97,203.1 -139.77,391.1 -139.77,391.1 37.94,56.9 88.52,107.49 189.69,88.52 101.16,-18.97 139.1,-183.37 139.1,-183.37 0,0 214.98,-50.58 316.15,-101.16 101.16,-50.59 31.61,-120.14 0,-164.4 0,0 120.66,32.37 103.94,145.23"
         style="fill:url(#linearGradient5);fill-opacity:1;fill-rule:nonzero;stroke:none"
         transform="matrix(0.13333333,0,0,-0.13333333,0,1066.6667)"
         clip-path="url(#clipPath5)" />
      <path
         id="path6"
         d="m 6903.13,4431.39 c -120.14,-63.22 -714.49,-170.71 -714.49,-170.71 0,0 385.7,31.61 537.45,75.87 151.74,44.26 360.4,107.49 360.4,107.49 -490.53,-305.63 -771.39,-373.05 -771.39,-373.05 -177.05,-177.04 -607,-240.27 -638.62,-297.18 -5.11,-9.2 -10.55,-27.04 -15.66,-50.58 -26.46,-122.02 -43.85,-398.16 40.96,-429.96 101.16,-37.94 151.75,132.78 183.36,265.56 31.61,132.78 126.46,113.82 170.72,44.26 44.26,-69.55 -246.59,-297.17 -139.11,-328.79 107.49,-31.61 436.28,139.11 467.9,6.33 31.61,-132.78 -354.08,-94.85 -461.57,-101.17 -107.49,-6.32 -82.2,-101.17 44.26,-208.66 126.46,-107.48 202.33,-183.36 88.52,-233.94 -113.82,-50.59 -101.17,164.39 -233.95,297.17 -132.78,132.78 -170.72,69.56 -252.92,113.82 -82.19,44.26 -53.05,296.55 -101.16,493.18 -6.54,26.72 -11.85,55.13 -14.43,82.2 -5.01,52.57 0.31,100.06 27.07,120.13 30.43,22.82 163.95,87.67 286.16,145.13 -82.04,-31.81 -161.77,-59.25 -231.36,-90.33 -169.9,-75.87 -130.67,-149.64 -130.67,-149.64 -392.02,-50.58 -803.01,0 -803.01,0 0,0 1150.77,-663.9 897.85,-866.24 -252.91,-202.33 -1180.22,233.95 -1180.22,233.95 0,0 377.21,-208.66 503.67,-265.56 126.46,-56.91 330.9,-128.57 514.27,-96.95 183.36,31.61 311.93,23.18 299.28,-65.34 -12.65,-88.52 -497.4,10.54 -446.82,-59.01 50.58,-69.55 271.89,-56.91 423.64,-75.88 151.75,-18.97 217.08,-128.56 115.91,-172.82 -101.16,-44.26 -387.8,115.92 -476.32,96.95 -88.52,-18.97 35.03,-173.33 130.67,-276.1 141.22,-151.75 2.61,-321.88 -105.38,-109.6 -63.43,124.7 -44.26,202.33 -177.04,335.12 -132.78,132.78 -1207.67,809.33 -1004.79,910.49 168.72,84.13 445.61,-24.13 534.08,-62.98 18.73,-8.23 38.94,-12.2 59.4,-12.32 282.63,-1.68 588.35,-183.94 588.35,-183.94 -145.43,164.4 -556.41,233.95 -556.41,233.95 0,0 -259.24,202.33 -448.93,290.85 -189.69,88.52 -120.13,270 -120.13,270 -12.65,276.32 309.82,545.66 309.82,545.66 -158.07,-126.46 -1036.96,-202.33 -1144.45,-208.66 -107.49,-6.32 -60.37,-347.23 -67.44,-432.06 -8.43,-101.17 -187.58,-166.51 -124.35,185.47 22.47,125.09 52.69,257.13 52.69,257.13 -334.51,82.29 -470.04,191.88 -433.83,259.24 -0.02,-0.02 -86.17,-77.98 0,-157.4 52.7,-48.57 215.36,-131.48 333.84,-188.61 -2.88,-44.26 -4.5,-88.87 -4.5,-133.86 0,-1121.96 909.53,-2031.49 2031.49,-2031.49 1121.96,0 2031.49,909.53 2031.49,2031.49 0,168.61 -20.92,332.27 -59.67,488.9 -52.01,-11.82 -114.88,-26.05 -174.63,-57.51"
         style="fill:url(#radialGradient7);fill-opacity:1;fill-rule:nonzero;stroke:none"
         transform="matrix(0.13333333,0,0,-0.13333333,0,1066.6667)"
         clip-path="url(#clipPath7)" />
      <path
         id="path8"
         d="m 6473.17,4774.94 c 0,0 52.69,-126.46 0,-263.46 0,0 -46.37,107.49 0,263.46 z m 158.07,-137 c 0,87.3 -70.77,158.08 -158.07,158.08 -87.3,0 -158.07,-70.78 -158.07,-158.08 0,-87.3 70.77,-158.07 158.07,-158.07 87.3,0 158.07,70.77 158.07,158.07"
         style="fill:url(#linearGradient9);fill-opacity:1;fill-rule:nonzero;stroke:none"
         transform="matrix(0.13333333,0,0,-0.13333333,0,1066.6667)"
         clip-path="url(#clipPath9)" />
    </g>
  </g>
</svg>
