<?xml version="1.0" encoding="utf-8"?>
<svg version="1.1" viewBox="90.5 92.1 300 300" xmlns="http://www.w3.org/2000/svg" xmlns:bx="https://boxy-svg.com">
  <defs>
    <filter id="drop-shadow-filter-0" color-interpolation-filters="sRGB" x="-50%" y="-50%" width="200%" height="200%" bx:preset="drop-shadow 1 -5 8 3 0.69 rgba(0,0,0,0.3)">
      <feGaussianBlur in="SourceAlpha" stdDeviation="3"/>
      <feOffset dx="-5" dy="8"/>
      <feComponentTransfer result="offsetblur">
        <feFuncA id="spread-ctrl" type="linear" slope="1.38"/>
      </feComponentTransfer>
      <feFlood flood-color="rgba(0,0,0,0.3)"/>
      <feComposite in2="offsetblur" operator="in"/>
      <feMerge>
        <feMergeNode/>
        <feMergeNode in="SourceGraphic"/>
      </feMerge>
    </filter>
  </defs>
  <ellipse style="fill-rule: nonzero; fill: rgb(255, 132, 0);" cx="238.242" cy="241.261" rx="143.102" ry="143.102"/>
  <g style="filter: url(#drop-shadow-filter-0);" transform="matrix(1, 0, 0, 1, -10.649627, -6.922257)">
    <path d=" M 348.18 170.86 Q 351.21 183.21 345.68 193.43 C 340.51 202.99 332.99 209.26 323.71 214.57 A 0.36 0.36 0.0 0 0 323.63 215.14 Q 330.99 222.59 335.60 231.60 Q 337.63 235.56 339.76 239.71 C 342.60 245.22 343.55 251.09 344.81 257.00 C 347.10 267.71 346.99 279.45 345.05 289.93 Q 344.06 295.30 342.99 300.45 C 342.64 302.14 341.89 303.57 341.28 305.16 Q 340.95 306.05 341.82 305.69 C 345.44 304.19 349.29 303.24 353.18 302.54 Q 361.01 301.11 368.47 299.00 A 1.25 1.22 2.2 0 0 369.30 298.25 Q 377.03 278.16 378.58 257.49 Q 380.74 228.65 369.30 201.47 Q 368.00 198.36 364.28 190.40 Q 362.64 186.89 360.72 183.90 Q 357.71 179.21 356.45 177.82 Q 351.60 172.44 350.29 168.34 Q 351.05 162.07 356.76 160.18 C 360.81 158.84 363.26 160.24 365.80 163.65 Q 371.66 171.57 376.26 178.78 Q 380.70 185.71 384.31 195.47 Q 387.13 203.08 389.67 211.74 Q 392.07 219.93 393.15 227.48 C 396.28 249.25 394.78 271.94 387.83 292.52 C 386.54 296.33 385.68 300.28 384.14 304.02 C 381.33 310.83 378.23 317.53 374.48 322.94 Q 370.45 328.76 366.07 335.07 Q 361.94 341.03 356.68 346.36 Q 347.87 355.29 341.15 360.63 Q 334.57 365.87 323.09 372.06 Q 321.08 373.14 320.04 374.49 Q 316.01 379.66 309.11 380.18 Q 306.91 380.34 304.97 381.09 C 300.97 382.63 297.18 384.14 292.89 385.16 Q 286.76 386.62 280.05 388.01 Q 252.26 393.79 224.27 388.81 C 219.09 387.89 213.51 386.44 208.02 385.34 Q 204.41 384.61 201.64 383.60 Q 185.44 377.65 178.45 373.32 Q 170.36 368.30 163.14 363.87 Q 161.16 362.65 159.32 361.13 Q 151.29 354.47 144.26 347.45 Q 138.74 341.93 133.43 334.55 Q 127.47 326.29 123.68 320.20 Q 119.39 313.29 115.98 304.59 Q 113.39 297.96 110.77 289.16 Q 108.48 281.47 107.13 273.53 Q 103.55 252.31 105.90 231.16 Q 106.78 223.18 109.47 213.21 Q 111.98 203.89 115.17 195.12 C 119.33 183.69 125.94 173.68 132.94 163.57 Q 136.44 158.53 140.34 154.40 Q 144.44 150.07 148.38 145.75 C 150.99 142.88 154.92 141.51 158.61 143.37 Q 162.79 145.46 163.39 150.77 Q 163.61 153.70 161.66 155.42 Q 159.50 157.33 157.92 158.98 Q 150.49 166.81 142.52 177.83 C 138.12 183.91 135.92 188.76 132.00 197.02 Q 126.66 208.25 123.93 220.55 Q 120.05 235.09 120.56 250.27 Q 120.66 253.43 121.81 255.85 Q 126.69 266.09 134.10 275.60 C 138.35 281.04 144.21 285.57 149.22 290.05 A 0.50 0.50 0.0 0 0 150.03 289.52 Q 147.30 280.88 147.28 271.53 Q 146.86 250.00 156.09 231.21 A 1.85 1.84 40.6 0 0 155.94 229.35 Q 152.21 224.02 149.86 218.51 C 140.05 195.54 156.17 170.06 176.25 159.64 Q 176.68 159.41 176.55 158.94 Q 176.07 157.18 175.15 156.20 Q 174.49 153.12 173.90 150.23 C 171.87 140.35 173.46 130.46 178.17 121.24 Q 181.38 114.93 189.93 108.75 Q 198.57 102.49 208.96 101.58 Q 228.73 99.83 241.66 113.18 C 242.42 113.96 243.20 114.60 244.38 114.50 Q 256.29 113.50 267.67 114.63 Q 272.80 115.14 277.34 116.57 Q 277.83 116.73 278.22 116.39 C 280.26 114.64 281.75 112.19 283.48 110.70 Q 299.18 97.19 319.50 103.29 Q 325.63 105.13 332.53 110.96 Q 343.77 120.47 343.26 136.11 Q 342.98 144.69 337.80 152.39 A 0.95 0.95 0.0 0 0 337.86 153.54 C 339.55 155.51 341.35 157.07 342.75 159.33 Q 346.21 164.90 348.18 170.86 Z M 292.66 117.16 Q 289.32 119.80 286.87 123.72 Q 286.60 124.15 287.01 124.44 L 296.54 131.28 Q 301.01 134.77 304.34 138.25 Q 304.43 138.34 304.41 138.46 Q 304.40 138.59 304.30 138.68 Q 304.28 138.70 304.25 138.69 Q 302.34 137.41 299.69 136.32 Q 287.54 131.31 278.85 128.49 Q 267.95 124.95 253.38 124.52 Q 252.78 124.50 253.05 125.04 Q 253.98 126.89 255.67 127.94 L 268.07 143.90 Q 269.22 145.37 267.47 144.72 L 252.78 139.25 Q 245.97 131.70 238.80 123.21 Q 236.20 120.13 228.60 115.79 Q 226.79 114.76 224.59 114.24 C 221.26 113.45 218.32 112.43 214.75 112.25 C 210.52 112.04 206.58 113.04 202.48 114.20 Q 199.13 115.14 196.27 117.19 Q 189.60 121.97 186.77 129.52 L 184.01 138.22 Q 182.49 153.19 194.04 162.95 Q 200.33 168.27 208.76 168.51 Q 218.18 169.30 225.49 163.26 Q 237.75 153.13 233.79 137.26 Q 231.50 128.10 222.20 121.15 Q 239.85 130.33 238.41 150.96 Q 235.81 159.02 230.24 165.00 C 224.14 171.56 215.82 174.90 206.74 173.86 C 199.57 173.03 192.22 168.46 187.79 162.16 Q 187.33 161.50 187.17 162.29 Q 184.22 176.40 180.39 190.68 Q 177.85 200.11 177.59 209.18 A 0.35 0.35 0.0 0 0 178.17 209.46 C 188.82 200.48 200.46 194.32 213.71 188.22 C 222.31 184.27 230.88 181.71 239.69 178.67 C 242.49 177.70 245.44 177.47 248.27 176.64 Q 267.48 170.94 288.85 168.87 Q 306.14 167.19 320.02 169.60 Q 328.56 171.08 336.53 176.10 Q 337.18 176.51 337.49 175.88 Q 337.78 176.85 338.54 177.42 Q 339.06 177.80 338.90 177.18 Q 335.50 163.77 325.99 154.53 C 323.64 152.25 321.94 149.65 319.42 147.41 Q 312.68 141.42 305.97 135.80 Q 305.52 121.47 318.12 116.26 Q 319.85 116.05 320.50 116.16 Q 323.58 116.67 320.77 115.31 Q 313.31 111.71 304.77 112.24 Q 299.17 112.59 292.66 117.16 Z M 328.7004 133.8834 A 6.50 5.91 70.4 0 0 332.0876 125.7775 A 6.50 5.91 70.4 0 0 324.3396 121.6366 A 6.50 5.91 70.4 0 0 320.9524 129.7425 A 6.50 5.91 70.4 0 0 328.7004 133.8834 Z M 162.74 187.10 Q 157.32 195.59 157.62 205.00 Q 157.89 213.42 162.18 220.35 C 166.18 226.95 171.99 232.03 178.14 236.79 Q 180.63 238.72 184.10 240.21 Q 187.28 241.58 190.42 243.01 Q 204.03 249.20 220.40 249.99 Q 220.91 250.01 220.89 249.50 L 220.72 245.66 L 220.99 242.19 Q 221.03 241.60 220.44 241.52 Q 209.88 240.15 203.63 238.55 Q 192.10 235.60 180.16 226.70 C 177.74 224.89 176.01 222.38 173.83 220.31 Q 171.66 218.26 169.99 215.81 Q 166.79 211.16 165.39 205.87 Q 166.12 198.42 167.79 191.49 Q 168.33 189.23 169.30 187.14 C 170.84 183.81 172.13 180.47 174.26 177.43 Q 176.10 174.81 177.63 172.23 Q 178.30 171.12 177.26 171.90 Q 167.73 179.09 162.74 187.10 Z M 262.60 183.67 Q 239.79 189.27 218.77 197.64 Q 203.93 203.22 199.75 205.44 Q 190.67 210.25 181.56 213.17 A 0.47 0.47 0.0 0 0 181.34 213.92 Q 183.22 216.23 185.61 217.91 Q 192.94 223.04 200.82 226.67 Q 209.13 229.63 217.50 230.76 L 223.29 231.87 Q 223.79 231.96 224.13 231.58 C 231.80 222.81 243.73 220.98 253.58 227.47 Q 259.91 231.64 262.07 240.01 Q 264.08 247.76 260.39 256.35 Q 259.49 258.44 257.97 260.00 C 248.66 269.60 234.47 270.32 225.07 260.77 A 1.20 1.18 67.2 0 0 224.23 260.42 L 218.15 260.33 Q 210.88 260.25 202.18 258.05 L 192.83 254.74 A 0.43 0.43 0.0 0 0 192.26 255.17 Q 192.73 263.70 195.60 273.37 Q 197.88 281.02 202.92 287.80 Q 217.66 307.65 244.48 311.01 Q 259.76 314.40 275.91 314.46 Q 276.29 314.46 276.60 314.25 C 280.01 311.91 282.04 308.68 284.75 305.75 Q 295.22 294.44 301.45 279.84 Q 304.89 270.78 306.63 265.38 Q 310.85 252.21 310.78 236.65 Q 316.73 251.27 315.71 266.72 Q 315.23 268.07 314.75 269.47 C 313.53 273.08 313.37 276.89 312.09 280.37 Q 308.17 291.08 301.91 301.22 Q 296.70 309.67 284.33 322.86 Q 283.13 323.19 279.75 323.01 Q 267.94 322.37 261.42 333.05 L 256.73 340.66 Q 256.45 341.12 256.98 341.18 Q 259.97 341.51 263.03 343.78 Q 263.78 344.08 264.75 345.24 Q 265.07 345.62 265.32 345.20 Q 272.19 333.87 283.78 327.31 Q 285.34 326.43 289.72 325.39 Q 294.46 324.52 299.04 325.68 C 301.08 326.53 305.14 329.08 303.77 331.57 Q 301.11 331.22 299.40 331.67 Q 284.05 333.42 280.70 347.91 Q 278.74 351.42 278.04 355.31 Q 277.95 355.79 278.44 355.80 Q 281.87 355.88 284.48 358.41 Q 285.12 359.66 286.20 360.41 Q 286.67 360.74 286.77 360.17 Q 288.31 351.67 294.77 345.12 C 296.68 343.19 299.22 341.72 301.30 339.91 Q 301.66 339.60 301.76 339.14 L 302.52 335.51 L 304.05 331.72 Q 307.43 325.36 310.37 323.12 Q 313.83 320.50 316.95 317.68 L 326.30 311.89 Q 330.03 307.25 332.23 300.95 C 338.44 283.26 337.55 262.00 329.89 245.00 C 327.54 239.78 324.15 234.72 321.18 229.55 Q 318.60 225.06 312.23 219.24 L 305.68 213.96 Q 310.63 211.03 316.06 207.80 Q 320.19 205.35 323.40 201.82 C 325.54 199.48 328.49 197.62 330.23 194.97 C 338.13 182.95 319.88 179.82 312.42 179.32 Q 298.31 178.37 286.24 179.64 Q 275.92 180.73 262.60 183.67 Z M 252.58 245.85 A 11.45 11.45 0.0 0 0 241.13 234.40 A 11.45 11.45 0.0 0 0 229.68 245.85 A 11.45 11.45 0.0 0 0 241.13 257.30 A 11.45 11.45 0.0 0 0 252.58 245.85 Z M 188.81 314.48 Q 193.67 316.72 198.73 319.10 Q 202.78 321.00 207.46 322.10 Q 215.77 324.04 216.02 324.11 Q 225.48 326.73 236.14 327.12 Q 236.66 327.14 236.96 326.72 Q 237.38 326.11 237.12 325.08 L 238.53 321.98 Q 238.74 321.51 238.24 321.40 Q 222.85 318.08 209.63 309.97 Q 206.69 306.68 203.38 303.87 Q 199.51 300.58 197.63 298.16 Q 193.68 293.07 190.93 288.32 Q 180.84 270.85 181.86 250.84 Q 181.89 250.32 181.45 250.05 C 175.79 246.60 170.91 242.76 165.78 238.85 A 0.76 0.76 0.0 0 0 164.63 239.13 Q 162.88 242.89 161.82 246.88 C 157.09 264.59 156.41 281.77 165.21 297.85 Q 166.48 300.18 168.52 301.74 Q 173.96 305.88 178.98 309.50 Q 181.40 311.24 188.81 314.48 Z M 143.46 320.77 Q 149.92 329.70 157.36 337.65 Q 161.46 342.04 166.24 345.53 Q 171.13 349.10 176.05 352.67 C 188.37 361.63 202.18 366.66 216.54 370.76 Q 237.72 376.80 260.64 374.83 Q 260.92 374.81 260.89 374.53 L 260.43 370.78 Q 260.39 370.47 260.11 370.60 Q 252.39 374.13 245.08 368.64 Q 239.99 364.81 239.46 359.98 Q 238.38 352.07 242.45 346.70 L 246.24 341.78 A 0.24 0.24 0.0 0 0 246.07 341.39 Q 221.28 339.24 197.08 330.13 Q 184.92 325.55 175.50 320.84 Q 164.88 315.53 158.17 310.59 Q 146.65 302.13 140.99 298.77 L 126.00 282.46 Q 125.46 281.88 125.64 282.65 C 127.96 292.83 132.29 301.39 136.67 310.58 Q 138.89 315.24 143.46 320.77 Z M 308.84 349.17 Q 308.37 349.30 308.41 349.98 Q 308.45 350.49 308.95 350.53 Q 312.42 350.82 315.64 352.59 L 317.56 354.43 Q 318.05 354.89 318.27 354.25 Q 320.62 347.43 323.27 344.32 Q 330.80 335.46 342.71 332.56 Q 344.80 332.05 347.00 332.10 Q 347.56 332.11 347.93 331.69 L 352.03 327.06 L 358.28 319.00 L 362.05 312.61 Q 362.35 312.09 361.76 312.19 Q 345.76 314.93 330.27 321.30 Q 324.92 323.50 320.89 327.12 Q 316.14 331.39 313.32 336.81 Q 310.56 342.11 308.84 349.17 Z M 245.66 324.53 Q 244.29 326.13 244.25 328.91 Q 243.48 333.76 247.43 336.63 A 0.82 0.82 0.0 0 0 248.58 336.44 L 251.48 332.35 L 255.35 327.14 Q 256.70 325.83 256.90 324.61 Q 256.98 324.10 256.56 323.80 Q 250.92 319.68 245.66 324.53 Z M 339.67 340.59 A 0.15 0.15 0.0 0 0 339.51 340.34 Q 332.17 343.38 328.29 348.78 Q 327.05 350.51 328.72 349.19 Q 333.13 345.72 338.14 342.20 C 338.71 341.80 339.16 341.10 339.67 340.59 Z M 248.21 353.74 A 8.01 7.14 85.6 0 0 256.98 364.29 A 8.02 7.14 85.6 0 0 261.99 355.38 A 8.03 7.14 85.5 0 0 253.76 348.64 A 8.01 7.13 85.7 0 0 248.21 353.74 Z M 294.36 357.02 Q 293.56 359.11 295.17 357.56 Q 295.89 356.87 296.85 356.50 Q 297.48 356.26 297.59 355.59 L 298.39 350.43 Q 298.55 349.43 297.96 350.26 Q 295.72 353.45 294.36 357.02 Z M 302.05 363.37 A 7.25 7.03 -83.6 0 0 301.88 367.11 A 7.22 6.97 -82.2 0 0 306.21 372.28 A 7.23 7.01 -81.6 0 0 315.73 364.98 A 7.22 7.02 -81.1 0 0 309.73 358.36 A 7.24 7.01 -81.3 0 0 302.05 363.37 Z M 270.97 365.92 A 7.53 7.05 69.3 0 0 270.26 373.50 A 7.53 7.06 69.4 0 0 280.56 377.05 A 7.53 7.06 69.5 0 0 283.38 368.28 A 7.53 7.06 69.5 0 0 270.97 365.92 Z" fill="#012f26"/>
    <path d=" M 318.12 116.26 Q 308.02 114.86 302.74 123.23 Q 302.35 123.85 302.45 123.13 Q 303.13 118.22 307.40 115.51 Q 307.78 115.28 307.33 115.22 Q 299.78 114.25 292.66 117.16 Q 299.17 112.59 304.77 112.24 Q 313.31 111.71 320.77 115.31 Q 323.58 116.67 320.50 116.16 Q 319.85 116.05 318.12 116.26 Z" fill="#ffffff"/>
    <path d=" M 252.78 139.25 L 259.00 149.11 Q 259.04 149.17 258.92 149.27 L 258.73 149.45 Q 258.62 149.55 258.52 149.44 Q 249.86 139.94 247.01 137.14 Q 242.43 132.64 238.31 128.30 C 229.26 118.76 217.08 113.58 203.75 116.25 Q 193.64 118.29 186.77 129.52 Q 189.60 121.97 196.27 117.19 Q 199.13 115.14 202.48 114.20 C 206.58 113.04 210.52 112.04 214.75 112.25 C 218.32 112.43 221.26 113.45 224.59 114.24 Q 226.79 114.76 228.60 115.79 Q 236.20 120.13 238.80 123.21 Q 245.97 131.70 252.78 139.25 Z" fill="#ffffff"/>
    <path d=" M 318.12 116.26 Q 305.52 121.47 305.97 135.80 Q 303.79 135.16 301.29 132.90 Q 299.05 130.88 296.54 131.28 L 287.01 124.44 Q 286.60 124.15 286.87 123.72 Q 289.32 119.80 292.66 117.16 Q 299.78 114.25 307.33 115.22 Q 307.78 115.28 307.40 115.51 Q 303.13 118.22 302.45 123.13 Q 302.35 123.85 302.74 123.23 Q 308.02 114.86 318.12 116.26 Z" fill="#89e400"/>
    <path d=" M 252.78 139.25 L 267.47 144.72 Q 269.22 145.37 268.07 143.90 L 255.67 127.94 Q 261.00 128.50 264.50 129.51 Q 273.37 132.05 286.93 136.55 Q 296.69 139.78 306.18 145.66 Q 306.70 145.99 307.26 145.72 Q 311.32 143.72 314.02 147.71 Q 314.17 147.93 314.01 148.16 Q 313.94 148.26 313.87 148.36 Q 311.56 146.08 308.63 146.49 C 305.41 146.94 304.92 149.82 304.53 152.41 A 1.28 1.28 0.0 0 0 305.64 153.87 Q 309.67 154.36 312.95 156.75 A 1.32 1.32 0.0 0 0 315.03 155.87 L 315.34 153.70 Q 315.42 153.51 315.58 153.45 C 317.84 155.62 320.53 157.35 322.53 159.48 Q 325.90 163.05 329.66 167.74 Q 314.87 162.95 297.50 163.43 Q 286.79 163.72 276.00 165.97 Q 259.73 169.36 246.66 173.61 Q 236.20 177.00 226.95 180.17 Q 215.19 184.20 204.00 190.67 Q 203.88 190.74 203.81 190.63 L 203.80 190.62 Q 203.71 190.49 203.84 190.40 Q 210.46 185.20 217.31 180.30 Q 217.37 180.26 223.28 176.37 Q 228.66 172.83 231.72 168.95 Q 237.64 161.45 238.41 150.96 Q 239.85 130.33 222.20 121.15 L 217.44 120.94 Q 207.13 118.03 199.43 123.40 Q 191.82 128.70 189.46 138.61 L 184.01 138.22 L 186.77 129.52 Q 193.64 118.29 203.75 116.25 C 217.08 113.58 229.26 118.76 238.31 128.30 Q 242.43 132.64 247.01 137.14 Q 249.86 139.94 258.52 149.44 Q 258.62 149.55 258.73 149.45 L 258.92 149.27 Q 259.04 149.17 259.00 149.11 L 252.78 139.25 Z M 297.24 144.97 C 291.82 141.65 284.69 139.19 278.29 137.82 Q 278.21 137.80 278.15 137.85 Q 278.11 137.88 278.08 137.93 Q 277.99 138.08 278.16 138.16 Q 287.61 142.36 296.91 145.66 Q 300.42 146.91 297.24 144.97 Z M 288.61 154.41 C 294.63 154.16 288.43 143.62 282.66 147.48 C 280.46 148.95 280.43 153.61 281.25 155.94 A 1.19 1.18 -27.9 0 0 283.08 156.50 Q 285.70 154.54 288.61 154.41 Z" fill="#89e400"/>
    <path d=" M 217.44 120.94 Q 207.99 123.82 208.93 132.97 Q 209.18 135.32 210.94 137.18 C 215.75 142.25 222.98 141.95 226.32 135.59 Q 227.18 133.95 227.77 135.70 C 230.17 142.90 229.34 152.56 223.01 157.63 C 218.05 161.60 213.73 163.43 206.96 162.98 Q 203.42 162.57 199.96 160.66 Q 198.69 159.96 197.72 158.99 C 196.07 157.33 194.22 156.14 192.84 154.21 Q 188.05 147.51 189.46 138.61 Q 191.82 128.70 199.43 123.40 Q 207.13 118.03 217.44 120.94 Z M 198.1461 148.2653 A 3.65 3.22 100.8 0 0 201.9930 145.2834 A 3.65 3.22 100.8 0 0 199.5139 141.0947 A 3.65 3.22 100.8 0 0 195.6670 144.0766 A 3.65 3.22 100.8 0 0 198.1461 148.2653 Z M 210.6756 153.8677 A 3.25 3.02 -10.5 0 0 206.9296 151.4906 A 3.25 3.02 -10.5 0 0 204.2844 155.0523 A 3.25 3.02 -10.5 0 0 208.0304 157.4294 A 3.25 3.02 -10.5 0 0 210.6756 153.8677 Z" fill="#012f26"/>
    <path d=" M 222.20 121.15 Q 231.50 128.10 233.79 137.26 Q 237.75 153.13 225.49 163.26 Q 218.18 169.30 208.76 168.51 L 206.96 162.98 C 213.73 163.43 218.05 161.60 223.01 157.63 C 229.34 152.56 230.17 142.90 227.77 135.70 Q 227.18 133.95 226.32 135.59 C 222.98 141.95 215.75 142.25 210.94 137.18 Q 209.18 135.32 208.93 132.97 Q 207.99 123.82 217.44 120.94 L 222.20 121.15 Z" fill="#ffffff"/>
    <ellipse transform="matrix(0.335452, 0.942057, -0.942057, 0.335452, 326.519989, 127.760002)" rx="6.5" ry="5.91" fill="#ffffff"/>
    <path d=" M 296.54 131.28 Q 299.05 130.88 301.29 132.90 Q 303.79 135.16 305.97 135.80 Q 312.68 141.42 319.42 147.41 C 321.94 149.65 323.64 152.25 325.99 154.53 Q 335.50 163.77 338.90 177.18 Q 339.06 177.80 338.54 177.42 Q 337.78 176.85 337.49 175.88 L 329.66 167.74 Q 325.90 163.05 322.53 159.48 C 320.53 157.35 317.84 155.62 315.58 153.45 Q 315.62 151.04 315.13 149.37 Q 314.88 148.54 314.03 148.44 Q 314.54 148.54 313.87 148.36 Q 313.94 148.26 314.01 148.16 Q 314.17 147.93 314.02 147.71 Q 311.32 143.72 307.26 145.72 Q 306.70 145.99 306.18 145.66 Q 296.69 139.78 286.93 136.55 Q 273.37 132.05 264.50 129.51 Q 261.00 128.50 255.67 127.94 Q 253.98 126.89 253.05 125.04 Q 252.78 124.50 253.38 124.52 Q 267.95 124.95 278.85 128.49 Q 287.54 131.31 299.69 136.32 Q 302.34 137.41 304.25 138.69 Q 304.28 138.70 304.30 138.68 Q 304.40 138.59 304.41 138.46 Q 304.43 138.34 304.34 138.25 Q 301.01 134.77 296.54 131.28 Z" fill="#ffffff"/>
    <path d=" M 278.29 137.82 C 284.69 139.19 291.82 141.65 297.24 144.97 Q 300.42 146.91 296.91 145.66 Q 287.61 142.36 278.16 138.16 Q 277.99 138.08 278.08 137.93 Q 278.11 137.88 278.15 137.85 Q 278.21 137.80 278.29 137.82 Z" fill="#ffffff"/>
    <path d=" M 184.01 138.22 L 189.46 138.61 Q 188.05 147.51 192.84 154.21 C 194.22 156.14 196.07 157.33 197.72 158.99 Q 198.69 159.96 199.96 160.66 Q 203.42 162.57 206.96 162.98 L 208.76 168.51 Q 200.33 168.27 194.04 162.95 Q 182.49 153.19 184.01 138.22 Z" fill="#b6e99d"/>
    <ellipse transform="matrix(-0.187381, 0.982287, -0.982287, -0.187381, 198.830002, 144.679993)" rx="3.65" ry="3.22" fill="#ffffff"/>
    <path d=" M 313.87 148.36 Q 314.54 148.54 314.03 148.44 Q 315.14 151.11 315.34 153.70 L 315.03 155.87 A 1.32 1.32 0.0 0 1 312.95 156.75 Q 309.67 154.36 305.64 153.87 A 1.28 1.28 0.0 0 1 304.53 152.41 C 304.92 149.82 305.41 146.94 308.63 146.49 Q 311.56 146.08 313.87 148.36 Z" fill="#012f26"/>
    <path d=" M 282.66 147.48 C 288.43 143.62 294.63 154.16 288.61 154.41 Q 285.70 154.54 283.08 156.50 A 1.19 1.18 -27.9 0 1 281.25 155.94 C 280.43 153.61 280.46 148.95 282.66 147.48 Z" fill="#012f26"/>
    <path d=" M 314.03 148.44 Q 314.88 148.54 315.13 149.37 Q 315.62 151.04 315.58 153.45 Q 315.42 153.51 315.34 153.70 Q 315.14 151.11 314.03 148.44 Z" fill="#b6e99d"/>
    <path d=" M 238.41 150.96 Q 237.64 161.45 231.72 168.95 Q 228.66 172.83 223.28 176.37 Q 217.37 180.26 217.31 180.30 Q 210.46 185.20 203.84 190.40 Q 203.71 190.49 203.80 190.62 L 203.81 190.63 Q 203.88 190.74 204.00 190.67 Q 215.19 184.20 226.95 180.17 Q 236.20 177.00 246.66 173.61 Q 259.73 169.36 276.00 165.97 Q 286.79 163.72 297.50 163.43 Q 314.87 162.95 329.66 167.74 L 337.49 175.88 Q 337.18 176.51 336.53 176.10 Q 328.56 171.08 320.02 169.60 Q 306.14 167.19 288.85 168.87 Q 267.48 170.94 248.27 176.64 C 245.44 177.47 242.49 177.70 239.69 178.67 C 230.88 181.71 222.31 184.27 213.71 188.22 C 200.46 194.32 188.82 200.48 178.17 209.46 A 0.35 0.35 0.0 0 1 177.59 209.18 Q 177.85 200.11 180.39 190.68 Q 184.22 176.40 187.17 162.29 Q 187.33 161.50 187.79 162.16 C 192.22 168.46 199.57 173.03 206.74 173.86 C 215.82 174.90 224.14 171.56 230.24 165.00 Q 235.81 159.02 238.41 150.96 Z" fill="#3a9708"/>
    <ellipse transform="matrix(0.983255, -0.182236, 0.182236, 0.983255, 207.479996, 154.460007)" rx="3.25" ry="3.02" fill="#ffffff"/>
    <path d=" M 165.39 205.87 Q 161.79 196.89 162.74 187.10 Q 167.73 179.09 177.26 171.90 Q 178.30 171.12 177.63 172.23 Q 176.10 174.81 174.26 177.43 C 172.13 180.47 170.84 183.81 169.30 187.14 Q 168.33 189.23 167.79 191.49 Q 166.12 198.42 165.39 205.87 Z" fill="#3a9708"/>
    <path d=" M 305.68 213.96 Q 309.89 226.34 310.78 236.65 Q 310.85 252.21 306.63 265.38 Q 304.89 270.78 301.45 279.84 Q 297.13 283.99 293.33 288.33 C 287.27 295.24 278.37 301.72 269.23 302.42 C 255.87 303.45 243.46 297.79 234.48 288.44 C 231.19 285.00 227.54 281.06 225.06 277.00 Q 220.34 269.27 218.15 260.33 L 224.23 260.42 A 1.20 1.18 67.2 0 1 225.07 260.77 C 234.47 270.32 248.66 269.60 257.97 260.00 Q 259.49 258.44 260.39 256.35 Q 264.08 247.76 262.07 240.01 Q 259.91 231.64 253.58 227.47 C 243.73 220.98 231.80 222.81 224.13 231.58 Q 223.79 231.96 223.29 231.87 L 217.50 230.76 Q 223.51 207.91 241.47 195.23 Q 248.67 190.15 262.60 183.67 Q 275.92 180.73 286.24 179.64 Q 298.31 178.37 312.42 179.32 C 319.88 179.82 338.13 182.95 330.23 194.97 C 328.49 197.62 325.54 199.48 323.40 201.82 Q 320.19 205.35 316.06 207.80 Q 310.63 211.03 305.68 213.96 Z" fill="#ffffff"/>
    <path d=" M 262.60 183.67 Q 248.67 190.15 241.47 195.23 Q 223.51 207.91 217.50 230.76 Q 209.13 229.63 200.82 226.67 Q 204.95 215.61 211.82 206.56 Q 215.17 202.15 218.77 197.64 Q 239.79 189.27 262.60 183.67 Z" fill="#b6e99d"/>
    <path d=" M 162.74 187.10 Q 161.79 196.89 165.39 205.87 Q 166.79 211.16 169.99 215.81 Q 171.66 218.26 173.83 220.31 C 176.01 222.38 177.74 224.89 180.16 226.70 Q 192.10 235.60 203.63 238.55 Q 209.88 240.15 220.44 241.52 Q 221.03 241.60 220.99 242.19 L 220.72 245.66 Q 206.34 244.15 192.72 239.15 Q 183.02 235.60 174.82 227.90 C 167.12 220.66 161.85 213.40 159.56 202.91 A 0.16 0.16 0.0 0 0 159.25 202.94 Q 159.14 208.04 160.37 213.70 Q 161.07 216.89 162.18 220.35 Q 157.89 213.42 157.62 205.00 Q 157.32 195.59 162.74 187.10 Z" fill="#ffffff"/>
    <path d=" M 218.77 197.64 Q 215.17 202.15 211.82 206.56 Q 204.95 215.61 200.82 226.67 Q 192.94 223.04 185.61 217.91 Q 183.22 216.23 181.34 213.92 A 0.47 0.47 0.0 0 1 181.56 213.17 Q 190.67 210.25 199.75 205.44 Q 203.93 203.22 218.77 197.64 Z" fill="#3a9708"/>
    <path d=" M 220.72 245.66 L 220.89 249.50 Q 220.91 250.01 220.40 249.99 Q 204.03 249.20 190.42 243.01 Q 187.28 241.58 184.10 240.21 Q 180.63 238.72 178.14 236.79 C 171.99 232.03 166.18 226.95 162.18 220.35 Q 161.07 216.89 160.37 213.70 Q 159.14 208.04 159.25 202.94 A 0.16 0.16 0.0 0 1 159.56 202.91 C 161.85 213.40 167.12 220.66 174.82 227.90 Q 183.02 235.60 192.72 239.15 Q 206.34 244.15 220.72 245.66 Z" fill="#a1c7a6"/>
    <path d=" M 305.68 213.96 L 312.23 219.24 Q 314.97 223.62 317.49 227.93 Q 320.89 233.76 322.05 237.39 C 323.69 242.54 325.41 248.43 326.25 253.75 C 328.57 268.57 325.98 282.07 322.30 297.10 C 320.89 302.83 318.33 308.00 315.44 313.10 Q 315.33 313.28 315.51 313.39 L 315.52 313.39 Q 315.64 313.47 315.73 313.35 Q 322.63 303.41 326.76 290.50 Q 331.23 276.55 330.80 265.80 C 330.69 263.09 330.34 260.43 330.34 257.78 Q 330.33 256.91 330.61 257.73 Q 330.69 257.99 330.62 258.25 Q 331.68 261.23 332.14 265.49 Q 334.73 289.60 326.30 311.89 L 316.95 317.68 Q 316.05 317.18 315.27 316.18 Q 314.96 315.79 314.63 316.15 Q 311.11 319.97 309.14 321.36 Q 305.24 324.09 299.04 325.68 Q 294.46 324.52 289.72 325.39 L 289.37 325.41 A 0.96 0.96 0.0 0 1 288.78 323.65 C 292.94 320.81 296.31 316.74 299.40 312.82 C 302.29 309.15 304.43 304.83 306.87 300.75 C 311.96 292.26 314.29 281.92 315.91 271.25 Q 316.20 269.31 315.71 266.72 Q 316.73 251.27 310.78 236.65 Q 309.89 226.34 305.68 213.96 Z" fill="#89e400"/>
    <path d=" M 312.23 219.24 Q 318.60 225.06 321.18 229.55 C 324.15 234.72 327.54 239.78 329.89 245.00 C 337.55 262.00 338.44 283.26 332.23 300.95 Q 330.03 307.25 326.30 311.89 Q 334.73 289.60 332.14 265.49 Q 331.68 261.23 330.62 258.25 Q 330.69 257.99 330.61 257.73 Q 330.33 256.91 330.34 257.78 C 330.34 260.43 330.69 263.09 330.80 265.80 Q 331.23 276.55 326.76 290.50 Q 322.63 303.41 315.73 313.35 Q 315.64 313.47 315.52 313.39 L 315.51 313.39 Q 315.33 313.28 315.44 313.10 C 318.33 308.00 320.89 302.83 322.30 297.10 C 325.98 282.07 328.57 268.57 326.25 253.75 C 325.41 248.43 323.69 242.54 322.05 237.39 Q 320.89 233.76 317.49 227.93 Q 314.97 223.62 312.23 219.24 Z" fill="#ffffff"/>
    <path d=" M 252.58 245.85 A 11.45 11.45 0.0 0 1 241.13 257.30 A 11.45 11.45 0.0 0 1 229.68 245.85 A 11.45 11.45 0.0 0 1 241.13 234.40 A 11.45 11.45 0.0 0 1 252.58 245.85 Z M 232.03 243.72 Q 230.49 250.85 234.84 254.35 C 241.03 259.35 253.12 254.49 250.41 245.56 Q 250.31 243.35 248.17 241.38 Q 247.54 240.80 247.77 241.63 Q 248.57 244.48 247.32 247.63 Q 247.14 248.07 246.69 247.93 Q 245.76 247.64 245.79 246.58 Q 245.83 245.54 245.85 244.58 Q 245.88 243.80 245.18 244.16 C 240.70 246.49 237.99 241.58 241.49 238.97 Q 243.00 237.85 241.12 237.88 Q 238.30 237.94 235.36 239.19 Q 232.06 240.59 232.03 243.72 Z" fill="#ffffff"/>
    <path d=" M 250.41 245.56 Q 248.53 247.69 246.82 249.67 Q 244.96 251.82 242.97 252.30 Q 237.66 253.56 234.51 248.28 Q 233.28 246.23 232.03 243.72 Q 232.06 240.59 235.36 239.19 Q 238.30 237.94 241.12 237.88 Q 243.00 237.85 241.49 238.97 C 237.99 241.58 240.70 246.49 245.18 244.16 Q 245.88 243.80 245.85 244.58 Q 245.83 245.54 245.79 246.58 Q 245.76 247.64 246.69 247.93 Q 247.14 248.07 247.32 247.63 Q 248.57 244.48 247.77 241.63 Q 247.54 240.80 248.17 241.38 Q 250.31 243.35 250.41 245.56 Z" fill="#a1c7a6"/>
    <path d=" M 209.63 309.97 Q 202.93 305.93 198.20 302.30 Q 190.06 296.04 183.35 286.62 Q 182.65 285.07 181.55 283.43 Q 180.38 281.68 179.74 280.11 Q 175.23 269.21 177.12 257.07 Q 177.22 256.40 176.72 256.86 Q 173.70 259.58 172.19 262.54 C 164.20 278.27 170.39 296.97 181.76 308.67 Q 183.23 310.18 185.51 311.75 Q 187.27 312.95 188.81 314.48 Q 181.40 311.24 178.98 309.50 Q 173.96 305.88 168.52 301.74 Q 166.48 300.18 165.21 297.85 C 156.41 281.77 157.09 264.59 161.82 246.88 Q 162.88 242.89 164.63 239.13 A 0.76 0.76 0.0 0 1 165.78 238.85 C 170.91 242.76 175.79 246.60 181.45 250.05 Q 181.89 250.32 181.86 250.84 Q 180.84 270.85 190.93 288.32 Q 193.68 293.07 197.63 298.16 Q 199.51 300.58 203.38 303.87 Q 206.69 306.68 209.63 309.97 Z" fill="#3a9708"/>
    <path d=" M 232.03 243.72 Q 233.28 246.23 234.51 248.28 Q 237.66 253.56 242.97 252.30 Q 244.96 251.82 246.82 249.67 Q 248.53 247.69 250.41 245.56 C 253.12 254.49 241.03 259.35 234.84 254.35 Q 230.49 250.85 232.03 243.72 Z" fill="#3a9708"/>
    <path d=" M 202.18 258.05 Q 203.96 266.74 207.46 274.60 Q 209.51 279.20 212.84 283.94 C 217.95 291.21 223.41 298.84 229.98 302.50 Q 237.12 306.48 244.48 311.01 Q 217.66 307.65 202.92 287.80 Q 197.88 281.02 195.60 273.37 Q 192.73 263.70 192.26 255.17 A 0.43 0.43 0.0 0 1 192.83 254.74 L 202.18 258.05 Z" fill="#73c255"/>
    <path d=" M 183.35 286.62 Q 183.78 288.62 186.19 292.35 Q 189.31 297.18 191.43 300.29 C 192.82 302.33 195.24 303.78 196.81 305.85 C 201.80 312.43 211.50 317.52 219.07 320.33 Q 221.93 321.39 228.08 322.79 Q 232.65 323.83 237.12 325.08 Q 237.38 326.11 236.96 326.72 Q 236.66 327.14 236.14 327.12 Q 225.48 326.73 216.02 324.11 Q 215.77 324.04 207.46 322.10 Q 202.78 321.00 198.73 319.10 Q 193.67 316.72 188.81 314.48 Q 187.27 312.95 185.51 311.75 Q 183.23 310.18 181.76 308.67 C 170.39 296.97 164.20 278.27 172.19 262.54 Q 173.70 259.58 176.72 256.86 Q 177.22 256.40 177.12 257.07 Q 175.23 269.21 179.74 280.11 Q 180.38 281.68 181.55 283.43 Q 182.65 285.07 183.35 286.62 Z" fill="#89e400"/>
    <path d=" M 202.18 258.05 Q 210.88 260.25 218.15 260.33 Q 220.34 269.27 225.06 277.00 C 227.54 281.06 231.19 285.00 234.48 288.44 C 243.46 297.79 255.87 303.45 269.23 302.42 C 278.37 301.72 287.27 295.24 293.33 288.33 Q 297.13 283.99 301.45 279.84 Q 295.22 294.44 284.75 305.75 C 282.04 308.68 280.01 311.91 276.60 314.25 Q 276.29 314.46 275.91 314.46 Q 259.76 314.40 244.48 311.01 Q 237.12 306.48 229.98 302.50 C 223.41 298.84 217.95 291.21 212.84 283.94 Q 209.51 279.20 207.46 274.60 Q 203.96 266.74 202.18 258.05 Z" fill="#b6e99d"/>
    <path d=" M 315.71 266.72 Q 316.20 269.31 315.91 271.25 C 314.29 281.92 311.96 292.26 306.87 300.75 C 304.43 304.83 302.29 309.15 299.40 312.82 C 296.31 316.74 292.94 320.81 288.78 323.65 A 0.96 0.96 0.0 0 0 289.37 325.41 L 289.72 325.39 Q 285.34 326.43 283.78 327.31 Q 272.19 333.87 265.32 345.20 Q 265.07 345.62 264.75 345.24 Q 263.78 344.08 263.03 343.78 Q 268.67 331.68 280.77 326.75 Q 282.68 325.96 281.53 323.81 Q 284.85 324.04 284.33 322.86 Q 296.70 309.67 301.91 301.22 Q 308.17 291.08 312.09 280.37 C 313.37 276.89 313.53 273.08 314.75 269.47 Q 315.23 268.07 315.71 266.72 Z" fill="#3a9708"/>
    <path d=" M 140.99 298.77 Q 153.68 310.01 159.66 314.60 Q 165.28 318.93 173.70 323.15 C 176.26 324.44 178.45 326.19 180.99 327.43 Q 189.89 331.80 199.97 336.22 Q 205.00 338.43 214.38 341.24 Q 219.88 342.89 228.36 344.26 Q 235.30 345.39 242.45 346.70 Q 238.38 352.07 239.46 359.98 Q 221.12 358.33 203.76 353.02 C 197.08 350.97 190.79 348.16 184.25 345.61 C 170.90 340.40 158.77 332.67 147.65 323.58 Q 146.42 322.58 143.46 320.77 Q 138.89 315.24 136.67 310.58 C 132.29 301.39 127.96 292.83 125.64 282.65 Q 125.46 281.88 126.00 282.46 L 140.99 298.77 Z" fill="#89e400"/>
    <path d=" M 183.35 286.62 Q 190.06 296.04 198.20 302.30 Q 202.93 305.93 209.63 309.97 Q 222.85 318.08 238.24 321.40 Q 238.74 321.51 238.53 321.98 L 237.12 325.08 Q 232.65 323.83 228.08 322.79 Q 221.93 321.39 219.07 320.33 C 211.50 317.52 201.80 312.43 196.81 305.85 C 195.24 303.78 192.82 302.33 191.43 300.29 Q 189.31 297.18 186.19 292.35 Q 183.78 288.62 183.35 286.62 Z" fill="#ffffff"/>
    <path d=" M 140.99 298.77 Q 146.65 302.13 158.17 310.59 Q 164.88 315.53 175.50 320.84 Q 184.92 325.55 197.08 330.13 Q 221.28 339.24 246.07 341.39 A 0.24 0.24 0.0 0 1 246.24 341.78 L 242.45 346.70 Q 235.30 345.39 228.36 344.26 Q 219.88 342.89 214.38 341.24 Q 205.00 338.43 199.97 336.22 Q 189.89 331.80 180.99 327.43 C 178.45 326.19 176.26 324.44 173.70 323.15 Q 165.28 318.93 159.66 314.60 Q 153.68 310.01 140.99 298.77 Z" fill="#ffffff"/>
    <path d=" M 358.28 319.00 Q 350.37 320.85 343.26 322.77 Q 320.84 328.83 308.84 349.17 Q 310.56 342.11 313.32 336.81 Q 316.14 331.39 320.89 327.12 Q 324.92 323.50 330.27 321.30 Q 345.76 314.93 361.76 312.19 Q 362.35 312.09 362.05 312.61 L 358.28 319.00 Z" fill="#ffffff"/>
    <path d=" M 316.95 317.68 Q 313.83 320.50 310.37 323.12 Q 307.43 325.36 304.05 331.72 Q 303.74 331.25 303.77 331.57 C 305.14 329.08 301.08 326.53 299.04 325.68 Q 305.24 324.09 309.14 321.36 Q 311.11 319.97 314.63 316.15 Q 314.96 315.79 315.27 316.18 Q 316.05 317.18 316.95 317.68 Z" fill="#3a9708"/>
    <path d=" M 358.28 319.00 L 352.03 327.06 Q 343.47 328.59 336.00 331.53 Q 327.62 334.84 324.02 339.27 Q 321.62 342.23 319.06 345.07 Q 317.62 346.67 315.64 352.59 Q 312.42 350.82 308.95 350.53 Q 308.45 350.49 308.41 349.98 Q 308.37 349.30 308.84 349.17 Q 320.84 328.83 343.26 322.77 Q 350.37 320.85 358.28 319.00 Z" fill="#89e400"/>
    <path d=" M 143.46 320.77 Q 146.42 322.58 147.65 323.58 C 158.77 332.67 170.90 340.40 184.25 345.61 C 190.79 348.16 197.08 350.97 203.76 353.02 Q 221.12 358.33 239.46 359.98 Q 239.99 364.81 245.08 368.64 Q 252.39 374.13 260.11 370.60 Q 260.39 370.47 260.43 370.78 L 260.89 374.53 Q 260.92 374.81 260.64 374.83 Q 237.72 376.80 216.54 370.76 C 202.18 366.66 188.37 361.63 176.05 352.67 Q 171.13 349.10 166.24 345.53 Q 161.46 342.04 157.36 337.65 Q 149.92 329.70 143.46 320.77 Z" fill="#3a9708"/>
    <path d=" M 255.35 327.14 Q 251.70 324.42 245.66 324.53 Q 250.92 319.68 256.56 323.80 Q 256.98 324.10 256.90 324.61 Q 256.70 325.83 255.35 327.14 Z" fill="#ffffff"/>
    <path d=" M 284.33 322.86 Q 284.85 324.04 281.53 323.81 Q 270.35 325.86 262.71 334.98 C 262.15 335.65 261.84 336.60 261.34 337.32 Q 260.81 338.08 260.92 337.17 L 261.42 333.05 Q 267.94 322.37 279.75 323.01 Q 283.13 323.19 284.33 322.86 Z" fill="#ffffff"/>
    <path d=" M 281.53 323.81 Q 282.68 325.96 280.77 326.75 Q 268.67 331.68 263.03 343.78 Q 259.97 341.51 256.98 341.18 Q 256.45 341.12 256.73 340.66 L 261.42 333.05 L 260.92 337.17 Q 260.81 338.08 261.34 337.32 C 261.84 336.60 262.15 335.65 262.71 334.98 Q 270.35 325.86 281.53 323.81 Z" fill="#89e400"/>
    <path d=" M 245.66 324.53 Q 251.70 324.42 255.35 327.14 L 251.48 332.35 Q 247.14 332.64 244.25 328.91 Q 244.29 326.13 245.66 324.53 Z" fill="#89e400"/>
    <path d=" M 352.03 327.06 L 347.93 331.69 Q 347.56 332.11 347.00 332.10 Q 344.80 332.05 342.71 332.56 Q 330.80 335.46 323.27 344.32 Q 320.62 347.43 318.27 354.25 Q 318.05 354.89 317.56 354.43 L 315.64 352.59 Q 317.62 346.67 319.06 345.07 Q 321.62 342.23 324.02 339.27 Q 327.62 334.84 336.00 331.53 Q 343.47 328.59 352.03 327.06 Z" fill="#3a9708"/>
    <path d=" M 244.25 328.91 Q 247.14 332.64 251.48 332.35 L 248.58 336.44 A 0.82 0.82 0.0 0 1 247.43 336.63 Q 243.48 333.76 244.25 328.91 Z" fill="#3a9708"/>
    <path d=" M 303.77 331.57 Q 303.74 331.25 304.05 331.72 L 302.52 335.51 Q 287.53 342.12 284.48 358.41 Q 281.87 355.88 278.44 355.80 Q 277.95 355.79 278.04 355.31 Q 278.74 351.42 280.70 347.91 Q 280.72 349.29 281.08 350.21 Q 281.29 350.76 281.53 350.22 C 284.51 343.34 289.99 336.18 296.73 333.27 Q 298.17 332.65 299.40 331.67 Q 301.11 331.22 303.77 331.57 Z" fill="#89e400"/>
    <path d=" M 299.40 331.67 Q 298.17 332.65 296.73 333.27 C 289.99 336.18 284.51 343.34 281.53 350.22 Q 281.29 350.76 281.08 350.21 Q 280.72 349.29 280.70 347.91 Q 284.05 333.42 299.40 331.67 Z" fill="#ffffff"/>
    <path d=" M 302.52 335.51 L 301.76 339.14 Q 301.66 339.60 301.30 339.91 C 299.22 341.72 296.68 343.19 294.77 345.12 Q 288.31 351.67 286.77 360.17 Q 286.67 360.74 286.20 360.41 Q 285.12 359.66 284.48 358.41 Q 287.53 342.12 302.52 335.51 Z" fill="#3a9708"/>
    <path d=" M 339.67 340.59 C 339.16 341.10 338.71 341.80 338.14 342.20 Q 333.13 345.72 328.72 349.19 Q 327.05 350.51 328.29 348.78 Q 332.17 343.38 339.51 340.34 A 0.15 0.15 0.0 0 1 339.67 340.59 Z" fill="#3a9708"/>
    <path d=" M 261.99 355.38 Q 256.23 348.22 248.21 353.74 A 8.01 7.13 85.7 0 1 253.76 348.64 A 8.03 7.14 85.5 0 1 261.99 355.38 Z" fill="#ffffff"/>
    <path d=" M 294.36 357.02 Q 295.72 353.45 297.96 350.26 Q 298.55 349.43 298.39 350.43 L 297.59 355.59 Q 297.48 356.26 296.85 356.50 Q 295.89 356.87 295.17 357.56 Q 293.56 359.11 294.36 357.02 Z" fill="#3a9708"/>
    <path d=" M 261.99 355.38 A 8.02 7.14 85.6 0 1 256.98 364.29 A 8.01 7.14 85.6 0 1 248.21 353.74 Q 256.23 348.22 261.99 355.38 Z" fill="#89e400"/>
    <path d=" M 315.73 364.98 Q 309.66 358.26 302.05 363.37 A 7.24 7.01 -81.3 0 1 309.73 358.36 A 7.22 7.02 -81.1 0 1 315.73 364.98 Z" fill="#ffffff"/>
    <path d=" M 315.73 364.98 A 7.23 7.01 -81.6 0 1 306.21 372.28 A 7.22 6.97 -82.2 0 1 301.88 367.11 A 7.25 7.03 -83.6 0 1 302.05 363.37 Q 309.66 358.26 315.73 364.98 Z" fill="#89e400"/>
    <path d=" M 283.38 368.28 Q 281.22 367.58 279.47 366.13 Q 279.08 365.80 278.57 365.78 Q 276.51 365.72 274.35 366.02 Q 273.90 366.08 273.56 366.39 Q 273.35 366.58 273.17 366.80 Q 272.87 367.18 272.38 367.20 Q 271.27 367.23 270.97 365.92 A 7.53 7.06 69.5 0 1 283.38 368.28 Z" fill="#ffffff"/>
    <path d=" M 283.38 368.28 A 7.53 7.06 69.5 0 1 280.56 377.05 A 7.53 7.06 69.4 0 1 270.26 373.50 A 7.53 7.05 69.3 0 1 270.97 365.92 Q 271.27 367.23 272.38 367.20 Q 272.87 367.18 273.17 366.80 Q 273.35 366.58 273.56 366.39 Q 273.90 366.08 274.35 366.02 Q 276.51 365.72 278.57 365.78 Q 279.08 365.80 279.47 366.13 Q 281.22 367.58 283.38 368.28 Z" fill="#89e400"/>
  </g>
</svg>